<svg width="55" height="32" viewBox="0 0 55 32" fill="none" xmlns="http://www.w3.org/2000/svg">
<path d="M17.5404 32.0001C7.22356 31.8793 -0.32784 24.6724 0.0118096 15.9016C0.272336 9.14981 3.60321 4.08643 10.0932 1.43586C16.4346 -1.15156 22.4808 -0.222838 27.8457 4.06971C29.4011 5.3142 29.5015 7.00447 28.1602 8.31025C27.4269 9.02351 26.4292 9.21296 25.3832 8.68545C24.6113 8.29725 23.9165 7.7623 23.2006 7.27565C16.6218 2.82337 7.1676 6.42866 5.65269 13.968C4.78234 18.307 6.88777 22.9265 10.7571 25.161C14.993 27.6091 19.9604 27.3602 23.683 24.5016C24.1848 24.1171 24.6344 23.6731 25.113 23.2608C26.433 22.124 27.8572 22.0925 29.0094 23.1735C30.2058 24.2954 30.2599 25.6012 29.0576 26.8995C25.7634 30.464 21.4908 31.8682 17.5404 32.0001Z" fill="#050B0B"/>
<path d="M37.8902 23.8626C39.4109 22.4286 40.7579 21.1618 42.1011 19.8913C44.5847 17.5417 47.053 15.1753 49.5598 12.8479C50.16 12.2907 50.8297 11.7576 51.5649 11.3954C52.6514 10.8623 53.9521 11.2821 54.6179 12.222C55.1949 13.0374 55.1061 13.9977 54.2088 14.8781C52.36 16.6891 50.4514 18.4425 48.5775 20.2275C47.6011 21.1563 47.6107 21.5463 48.5698 22.4936C50.3858 24.286 52.1998 26.0822 54.0158 27.8728C55.2065 29.0467 55.3146 30.0237 54.3554 31.0248C53.4195 32.0019 51.6575 32.065 50.6154 31.088C49.2105 29.7711 47.8577 28.4021 46.4875 27.0518C46.0379 26.6097 45.6133 26.1435 45.1579 25.7088C44.3011 24.8916 43.6777 24.8804 42.8054 25.6977C41.0107 27.3768 39.2623 29.1024 37.4289 30.7407C36.9098 31.205 36.1977 31.6099 35.5126 31.7362C33.7719 32.0557 32.5368 30.9877 32.5021 29.1767C32.45 26.541 32.4867 23.9034 32.4867 21.2658C32.4867 20.7123 32.5002 20.1588 32.4886 19.6053C32.4732 18.827 32.8688 18.4741 33.6639 18.4797C34.6114 18.489 35.5589 18.4853 36.5046 18.4815C37.3151 18.4778 37.6605 18.8567 37.6316 19.6369C37.5988 20.547 37.5988 21.4609 37.6335 22.371C37.647 22.7982 37.7744 23.2217 37.8902 23.8626Z" fill="#050B0B"/>
<path d="M22.2702 15.9499C22.2663 14.0181 23.2853 12.4894 25.0433 11.7873C26.8323 11.0722 28.9435 11.4418 30.3002 12.7681C31.4233 13.8658 32.533 14.9598 34.1714 15.3183C35.8369 15.6824 37.2977 15.1363 38.7123 14.3729C39.1832 14.1203 39.6463 13.8324 40.15 13.6633C41.2307 13.3011 42.3635 13.8064 42.9637 14.8521C43.5368 15.8514 43.2918 16.8879 42.2825 17.7237C41.3735 18.4778 40.3391 18.554 39.4321 17.8017C37.4618 16.1672 35.1865 16.2099 32.9209 16.8098C32.1084 17.0253 31.3384 17.7887 30.8019 18.4834C29.4974 20.1681 27.6467 20.8665 25.5625 20.2535C23.5111 19.648 22.274 18.032 22.2702 15.9499Z" fill="#050B0B"/>
<path d="M37.62 7.20687C37.62 8.73369 37.5988 10.2624 37.6296 11.7892C37.6451 12.5359 37.3402 12.8665 36.5586 12.8461C35.5802 12.8219 34.5998 12.8312 33.6214 12.8424C32.8842 12.8498 32.4847 12.5674 32.4886 11.8078C32.5021 8.85071 32.4519 5.8918 32.5175 2.93476C32.5581 1.10146 33.7449 0.180171 35.5647 0.390062C36.8307 0.5368 37.5833 1.28721 37.6104 2.52612C37.6451 4.08637 37.6181 5.64662 37.6181 7.20687C37.6181 7.20687 37.6181 7.20687 37.62 7.20687Z" fill="#050B0B"/>
<path d="M36.0125 13.6596H34.0344C33.1795 13.6596 32.4847 12.9928 32.4847 12.1681V11.3378C32.4847 10.515 33.1775 9.8463 34.0344 9.8463H36.0125C36.8674 9.8463 37.5621 10.5131 37.5621 11.3378V12.1681C37.5621 12.9909 36.8674 13.6596 36.0125 13.6596Z" fill="#050B0B"/>
<path d="M36.1572 21.5166H33.9263C33.1293 21.5166 32.4828 20.8944 32.4828 20.1272V19.388C32.4828 18.6208 33.1293 17.9986 33.9263 17.9986H36.1553C36.9523 17.9986 37.5988 18.6208 37.5988 19.388V20.1272C37.6007 20.8944 36.9542 21.5166 36.1572 21.5166Z" fill="#050B0B"/>
</svg>
